<!--?xml version="1.0" standalone="no"?-->
              <svg id="sw-js-blob-svg" viewBox="0 0 100 100" xmlns="http://www.w3.org/2000/svg" version="1.1">
                    <defs> 
                        <linearGradient id="sw-gradient" x1="0" x2="1" y1="1" y2="0">
                            <stop id="stop1" stop-color="rgba(55, 87.825, 248, 1)" offset="0%"></stop>
                            <stop id="stop2" stop-color="rgba(31, 172.75, 251, 1)" offset="100%"></stop>
                        </linearGradient>
                    </defs>
                <path fill="url(#sw-gradient)" d="M10,-17.2C11.9,-16.1,11.9,-11.5,18,-8C24.2,-4.5,36.6,-2.3,36.6,0C36.7,2.3,24.4,4.7,19.9,11C15.4,17.3,18.6,27.6,16.6,28.9C14.6,30.2,7.3,22.6,1,20.9C-5.3,19.2,-10.6,23.4,-12.6,22C-14.5,20.7,-13.2,13.7,-15.1,9.1C-17,4.5,-22.1,2.3,-24.2,-1.2C-26.3,-4.7,-25.2,-9.3,-22.1,-11.7C-18.9,-14.1,-13.6,-14.2,-9.5,-14.1C-5.5,-14,-2.7,-13.8,0.6,-14.9C4,-16,8,-18.4,10,-17.2Z" width="100%" height="100%" transform="translate(50 50)" stroke-width="0" style="transition: all 0.3s ease 0s;" stroke="url(#sw-gradient)"></path>
              </svg>